%TF.GenerationSoftware,KiCad,Pcbnew,(6.0.9)*%
%TF.CreationDate,2022-11-16T12:37:32-05:00*%
%TF.ProjectId,Project.1,50726f6a-6563-4742-9e31-2e6b69636164,rev?*%
%TF.SameCoordinates,Original*%
%TF.FileFunction,Copper,L2,Bot*%
%TF.FilePolarity,Positive*%
%FSLAX46Y46*%
G04 Gerber Fmt 4.6, Leading zero omitted, Abs format (unit mm)*
G04 Created by KiCad (PCBNEW (6.0.9)) date 2022-11-16 12:37:32*
%MOMM*%
%LPD*%
G01*
G04 APERTURE LIST*
%TA.AperFunction,ComponentPad*%
%ADD10C,1.600000*%
%TD*%
%TA.AperFunction,ComponentPad*%
%ADD11O,1.600000X1.600000*%
%TD*%
%TA.AperFunction,ComponentPad*%
%ADD12R,1.700000X1.700000*%
%TD*%
%TA.AperFunction,ComponentPad*%
%ADD13O,1.700000X1.700000*%
%TD*%
%TA.AperFunction,ComponentPad*%
%ADD14R,2.000000X2.000000*%
%TD*%
%TA.AperFunction,ComponentPad*%
%ADD15C,2.000000*%
%TD*%
%TA.AperFunction,ComponentPad*%
%ADD16R,1.800000X1.800000*%
%TD*%
%TA.AperFunction,ComponentPad*%
%ADD17C,1.800000*%
%TD*%
%TA.AperFunction,ComponentPad*%
%ADD18C,1.524000*%
%TD*%
%TA.AperFunction,ViaPad*%
%ADD19C,0.800000*%
%TD*%
%TA.AperFunction,Conductor*%
%ADD20C,0.250000*%
%TD*%
%TA.AperFunction,Conductor*%
%ADD21C,0.500000*%
%TD*%
G04 APERTURE END LIST*
D10*
%TO.P,R1,1*%
%TO.N,VCC*%
X143510000Y-93980000D03*
D11*
%TO.P,R1,2*%
%TO.N,Net-(R1-Pad2)*%
X156210000Y-93980000D03*
%TD*%
D12*
%TO.P,J1,1,SDA*%
%TO.N,SDA*%
X99060000Y-76200000D03*
D13*
%TO.P,J1,2,SCK*%
%TO.N,SCLK*%
X99060000Y-78740000D03*
%TO.P,J1,3,MOSI*%
%TO.N,MOSI*%
X99060000Y-81280000D03*
%TO.P,J1,4,MISO*%
%TO.N,MISO*%
X99060000Y-83820000D03*
%TO.P,J1,5,IRQ*%
%TO.N,unconnected-(J1-Pad5)*%
X99060000Y-86360000D03*
%TO.P,J1,6,GND*%
%TO.N,GND*%
X99060000Y-88900000D03*
%TO.P,J1,7,RST*%
%TO.N,RST*%
X99060000Y-91440000D03*
%TO.P,J1,8,3.3V*%
%TO.N,3.3*%
X99060000Y-93980000D03*
%TD*%
D12*
%TO.P,J3,1,Pin_1*%
%TO.N,PWM*%
X162560000Y-50800000D03*
D13*
%TO.P,J3,2,Pin_2*%
%TO.N,VCC*%
X162560000Y-53340000D03*
%TO.P,J3,3,Pin_3*%
%TO.N,GND*%
X162560000Y-55880000D03*
%TD*%
D12*
%TO.P,J2,1,GND*%
%TO.N,GND*%
X160020000Y-99060000D03*
D13*
%TO.P,J2,2,VCC*%
%TO.N,VCC*%
X160020000Y-101600000D03*
%TO.P,J2,3,SDA*%
%TO.N,RST*%
X160020000Y-104140000D03*
%TO.P,J2,4,SCL*%
%TO.N,SDA*%
X160020000Y-106680000D03*
%TD*%
D14*
%TO.P,BZ1,1,-*%
%TO.N,Buzz*%
X156220000Y-76200000D03*
D15*
%TO.P,BZ1,2,+*%
%TO.N,GND*%
X163820000Y-76200000D03*
%TD*%
D16*
%TO.P,D2,1,K*%
%TO.N,GND*%
X108600000Y-116840000D03*
D17*
%TO.P,D2,2,A*%
%TO.N,LED2*%
X111140000Y-116840000D03*
%TD*%
D18*
%TO.P,U1,1,GPIO0*%
%TO.N,RST*%
X120680000Y-46990000D03*
%TO.P,U1,2,GPIO1*%
%TO.N,SDA*%
X120680000Y-49530000D03*
%TO.P,U1,3,GND*%
%TO.N,GND*%
X120680000Y-52070000D03*
%TO.P,U1,4,GPIO2*%
%TO.N,SCLK*%
X120690000Y-54610000D03*
%TO.P,U1,5,GPIO3*%
%TO.N,MOSI*%
X120680000Y-57150000D03*
%TO.P,U1,6,GPIO4*%
%TO.N,MISO*%
X120680000Y-59690000D03*
%TO.P,U1,7,GPIO5*%
%TO.N,unconnected-(U1-Pad7)*%
X120680000Y-62230000D03*
%TO.P,U1,8,GND*%
%TO.N,unconnected-(U1-Pad8)*%
X120680000Y-64770000D03*
%TO.P,U1,9,GPIO6*%
%TO.N,unconnected-(U1-Pad9)*%
X120680000Y-67310000D03*
%TO.P,U1,10,GPIO7*%
%TO.N,unconnected-(U1-Pad10)*%
X120680000Y-69850000D03*
%TO.P,U1,11,GPIO8*%
%TO.N,LED1*%
X120680000Y-72390000D03*
%TO.P,U1,12,GPIO9*%
%TO.N,LED2*%
X120680000Y-74930000D03*
%TO.P,U1,13,GND*%
%TO.N,unconnected-(U1-Pad13)*%
X120680000Y-77470000D03*
%TO.P,U1,14,GPIO10*%
%TO.N,LED3*%
X120680000Y-80010000D03*
%TO.P,U1,15,GPIO11*%
%TO.N,unconnected-(U1-Pad15)*%
X120680000Y-82550000D03*
%TO.P,U1,16,GPIO12*%
%TO.N,unconnected-(U1-Pad16)*%
X120680000Y-85090000D03*
%TO.P,U1,17,GPIO13*%
%TO.N,unconnected-(U1-Pad17)*%
X120680000Y-87630000D03*
%TO.P,U1,18,GND*%
%TO.N,GND*%
X120680000Y-90170000D03*
%TO.P,U1,19,GPIO14*%
%TO.N,unconnected-(U1-Pad19)*%
X120680000Y-92710000D03*
%TO.P,U1,20,GPIO15*%
%TO.N,Buzz*%
X120680000Y-95250000D03*
%TO.P,U1,21,GPIO16*%
%TO.N,unconnected-(U1-Pad21)*%
X138460000Y-95250000D03*
%TO.P,U1,22,GPIO17*%
%TO.N,unconnected-(U1-Pad22)*%
X138460000Y-92710000D03*
%TO.P,U1,23,GND*%
%TO.N,unconnected-(U1-Pad23)*%
X138460000Y-90170000D03*
%TO.P,U1,24,GPIO18*%
%TO.N,PWM*%
X138460000Y-87630000D03*
%TO.P,U1,25,GPIO19*%
%TO.N,unconnected-(U1-Pad25)*%
X138460000Y-85090000D03*
%TO.P,U1,26,GPIO20*%
%TO.N,unconnected-(U1-Pad26)*%
X138460000Y-82550000D03*
%TO.P,U1,27,GPIO21*%
%TO.N,unconnected-(U1-Pad27)*%
X138460000Y-80010000D03*
%TO.P,U1,28,GND*%
%TO.N,GND*%
X138460000Y-77470000D03*
%TO.P,U1,29,GPIO22*%
%TO.N,unconnected-(U1-Pad29)*%
X138460000Y-74930000D03*
%TO.P,U1,30,RUN*%
%TO.N,unconnected-(U1-Pad30)*%
X138460000Y-72390000D03*
%TO.P,U1,31,GPIO26_ADC0*%
%TO.N,unconnected-(U1-Pad31)*%
X138460000Y-69850000D03*
%TO.P,U1,32,GPIO27_ADC1*%
%TO.N,unconnected-(U1-Pad32)*%
X138460000Y-67310000D03*
%TO.P,U1,33,AGND*%
%TO.N,unconnected-(U1-Pad33)*%
X138460000Y-64770000D03*
%TO.P,U1,34,GPIO28_ADC2*%
%TO.N,unconnected-(U1-Pad34)*%
X138460000Y-62230000D03*
%TO.P,U1,35,ADC_VREF*%
%TO.N,unconnected-(U1-Pad35)*%
X138460000Y-59690000D03*
%TO.P,U1,36,3V3*%
%TO.N,3.3*%
X138460000Y-57150000D03*
%TO.P,U1,37,3V3_EN*%
%TO.N,unconnected-(U1-Pad37)*%
X138460000Y-54610000D03*
%TO.P,U1,38,GND*%
%TO.N,GND*%
X138460000Y-52070000D03*
%TO.P,U1,39,VSYS*%
%TO.N,unconnected-(U1-Pad39)*%
X138460000Y-49530000D03*
%TO.P,U1,40,VBUS*%
%TO.N,Net-(R1-Pad2)*%
X138460000Y-46990000D03*
%TD*%
D16*
%TO.P,D1,1,K*%
%TO.N,GND*%
X99060000Y-116840000D03*
D17*
%TO.P,D1,2,A*%
%TO.N,LED1*%
X101600000Y-116840000D03*
%TD*%
D16*
%TO.P,D3,1,K*%
%TO.N,GND*%
X119380000Y-116840000D03*
D17*
%TO.P,D3,2,A*%
%TO.N,LED3*%
X121920000Y-116840000D03*
%TD*%
D19*
%TO.N,Buzz*%
X126250000Y-100500000D03*
X138650000Y-100500000D03*
X146125000Y-83075000D03*
%TO.N,SDA*%
X103261701Y-86360000D03*
%TO.N,MOSI*%
X105500000Y-77750000D03*
%TO.N,MISO*%
X105750000Y-79750000D03*
X116250000Y-71250000D03*
%TO.N,RST*%
X117700000Y-59500000D03*
X104140000Y-81280000D03*
%TO.N,3.3*%
X142200000Y-49900000D03*
%TD*%
D20*
%TO.N,Buzz*%
X146125000Y-83075000D02*
X153000000Y-76200000D01*
X153000000Y-76200000D02*
X156220000Y-76200000D01*
X126250000Y-100500000D02*
X138650000Y-100500000D01*
%TO.N,SDA*%
X109221802Y-86360000D02*
X129540000Y-106678198D01*
X99060000Y-52440000D02*
X99060000Y-76200000D01*
X101970000Y-49530000D02*
X99060000Y-52440000D01*
X120680000Y-49530000D02*
X101970000Y-49530000D01*
X103261701Y-86360000D02*
X109221802Y-86360000D01*
X129540000Y-106678198D02*
X160020000Y-106678198D01*
%TO.N,SCLK*%
X107590000Y-54610000D02*
X103000000Y-59200000D01*
X120690000Y-54610000D02*
X107590000Y-54610000D01*
X101600000Y-78740000D02*
X99060000Y-78740000D01*
X103000000Y-59200000D02*
X103000000Y-77340000D01*
X103000000Y-77340000D02*
X101600000Y-78740000D01*
%TO.N,MOSI*%
X113000000Y-57150000D02*
X105500000Y-64650000D01*
X120680000Y-57150000D02*
X113000000Y-57150000D01*
X105500000Y-64650000D02*
X105500000Y-77750000D01*
%TO.N,MISO*%
X112000000Y-79750000D02*
X116250000Y-75500000D01*
X105750000Y-79750000D02*
X112000000Y-79750000D01*
X116250000Y-75500000D02*
X116250000Y-71250000D01*
%TO.N,RST*%
X104140000Y-81280000D02*
X104140000Y-80440000D01*
X111760000Y-91438198D02*
X111760000Y-91440000D01*
X163870000Y-105100000D02*
X162910000Y-104140000D01*
X129540000Y-109220000D02*
X162560000Y-109220000D01*
X111760000Y-91440000D02*
X129540000Y-109220000D01*
X162560000Y-109220000D02*
X163870000Y-107910000D01*
X99060000Y-91438198D02*
X111760000Y-91438198D01*
X104140000Y-80440000D02*
X104140000Y-80340000D01*
X104140000Y-80334695D02*
X117700000Y-66774695D01*
X104140000Y-80440000D02*
X104140000Y-80334695D01*
X163870000Y-107910000D02*
X163870000Y-105100000D01*
X162910000Y-104140000D02*
X160020000Y-104140000D01*
X117700000Y-66774695D02*
X117700000Y-59500000D01*
D21*
%TO.N,3.3*%
X142200000Y-53410000D02*
X138460000Y-57150000D01*
X142200000Y-49900000D02*
X142200000Y-53410000D01*
%TO.N,VCC*%
X160020000Y-101598198D02*
X147954099Y-101598198D01*
X143510000Y-97154099D02*
X143510000Y-93978198D01*
X143650000Y-93840000D02*
X143510000Y-93980000D01*
X143650000Y-61950000D02*
X143650000Y-93840000D01*
X152261802Y-53338198D02*
X143650000Y-61950000D01*
X147954099Y-101598198D02*
X143510000Y-97154099D01*
X162560000Y-53338198D02*
X152261802Y-53338198D01*
D20*
%TO.N,PWM*%
X162560000Y-50798198D02*
X149860901Y-50798198D01*
X142058802Y-58600297D02*
X142058802Y-84029396D01*
X149860901Y-50798198D02*
X142058802Y-58600297D01*
X142058802Y-84029396D02*
X138460000Y-87628198D01*
D21*
%TO.N,Net-(R1-Pad2)*%
X167640000Y-50800000D02*
X167640000Y-85724099D01*
X167640000Y-85724099D02*
X159385901Y-93978198D01*
X159385901Y-93978198D02*
X156210000Y-93978198D01*
X138460000Y-46988198D02*
X163828198Y-46988198D01*
X163828198Y-46988198D02*
X167640000Y-50800000D01*
%TD*%
M02*
