%TF.GenerationSoftware,KiCad,Pcbnew,(6.0.9)*%
%TF.CreationDate,2022-11-16T12:37:32-05:00*%
%TF.ProjectId,Project.1,50726f6a-6563-4742-9e31-2e6b69636164,rev?*%
%TF.SameCoordinates,Original*%
%TF.FileFunction,Soldermask,Bot*%
%TF.FilePolarity,Negative*%
%FSLAX46Y46*%
G04 Gerber Fmt 4.6, Leading zero omitted, Abs format (unit mm)*
G04 Created by KiCad (PCBNEW (6.0.9)) date 2022-11-16 12:37:32*
%MOMM*%
%LPD*%
G01*
G04 APERTURE LIST*
%ADD10C,1.600000*%
%ADD11O,1.600000X1.600000*%
%ADD12R,1.700000X1.700000*%
%ADD13O,1.700000X1.700000*%
%ADD14R,2.000000X2.000000*%
%ADD15C,2.000000*%
%ADD16R,1.800000X1.800000*%
%ADD17C,1.800000*%
%ADD18C,1.524000*%
G04 APERTURE END LIST*
D10*
%TO.C,R1*%
X143510000Y-93980000D03*
D11*
X156210000Y-93980000D03*
%TD*%
D12*
%TO.C,J1*%
X99060000Y-76200000D03*
D13*
X99060000Y-78740000D03*
X99060000Y-81280000D03*
X99060000Y-83820000D03*
X99060000Y-86360000D03*
X99060000Y-88900000D03*
X99060000Y-91440000D03*
X99060000Y-93980000D03*
%TD*%
D12*
%TO.C,J3*%
X162560000Y-50800000D03*
D13*
X162560000Y-53340000D03*
X162560000Y-55880000D03*
%TD*%
D12*
%TO.C,J2*%
X160020000Y-99060000D03*
D13*
X160020000Y-101600000D03*
X160020000Y-104140000D03*
X160020000Y-106680000D03*
%TD*%
D14*
%TO.C,BZ1*%
X156220000Y-76200000D03*
D15*
X163820000Y-76200000D03*
%TD*%
D16*
%TO.C,D2*%
X108600000Y-116840000D03*
D17*
X111140000Y-116840000D03*
%TD*%
D18*
%TO.C,U1*%
X120680000Y-46990000D03*
X120680000Y-49530000D03*
X120680000Y-52070000D03*
X120690000Y-54610000D03*
X120680000Y-57150000D03*
X120680000Y-59690000D03*
X120680000Y-62230000D03*
X120680000Y-64770000D03*
X120680000Y-67310000D03*
X120680000Y-69850000D03*
X120680000Y-72390000D03*
X120680000Y-74930000D03*
X120680000Y-77470000D03*
X120680000Y-80010000D03*
X120680000Y-82550000D03*
X120680000Y-85090000D03*
X120680000Y-87630000D03*
X120680000Y-90170000D03*
X120680000Y-92710000D03*
X120680000Y-95250000D03*
X138460000Y-95250000D03*
X138460000Y-92710000D03*
X138460000Y-90170000D03*
X138460000Y-87630000D03*
X138460000Y-85090000D03*
X138460000Y-82550000D03*
X138460000Y-80010000D03*
X138460000Y-77470000D03*
X138460000Y-74930000D03*
X138460000Y-72390000D03*
X138460000Y-69850000D03*
X138460000Y-67310000D03*
X138460000Y-64770000D03*
X138460000Y-62230000D03*
X138460000Y-59690000D03*
X138460000Y-57150000D03*
X138460000Y-54610000D03*
X138460000Y-52070000D03*
X138460000Y-49530000D03*
X138460000Y-46990000D03*
%TD*%
D16*
%TO.C,D1*%
X99060000Y-116840000D03*
D17*
X101600000Y-116840000D03*
%TD*%
D16*
%TO.C,D3*%
X119380000Y-116840000D03*
D17*
X121920000Y-116840000D03*
%TD*%
M02*
