M48
; DRILL file {KiCad (6.0.9)} date Wed Nov 16 12:37:46 2022
; FORMAT={-:-/ absolute / metric / decimal}
; #@! TF.CreationDate,2022-11-16T12:37:46-05:00
; #@! TF.GenerationSoftware,Kicad,Pcbnew,(6.0.9)
; #@! TF.FileFunction,Plated,1,2,PTH
FMAT,2
METRIC
; #@! TA.AperFunction,Plated,PTH,ViaDrill
T1C0.400
; #@! TA.AperFunction,Plated,PTH,ComponentDrill
T2C0.800
; #@! TA.AperFunction,Plated,PTH,ComponentDrill
T3C0.900
; #@! TA.AperFunction,Plated,PTH,ComponentDrill
T4C1.000
%
G90
G05
T1
X103.262Y-86.36
X104.14Y-81.28
X105.5Y-77.75
X105.75Y-79.75
X116.25Y-71.25
X117.7Y-59.5
X126.25Y-100.5
X138.65Y-100.5
X142.2Y-49.9
X146.125Y-83.075
T2
X143.51Y-93.98
X156.21Y-93.98
T3
X99.06Y-116.84
X101.6Y-116.84
X108.6Y-116.84
X111.14Y-116.84
X119.38Y-116.84
X121.92Y-116.84
T4
X99.06Y-76.2
X99.06Y-78.74
X99.06Y-81.28
X99.06Y-83.82
X99.06Y-86.36
X99.06Y-88.9
X99.06Y-91.44
X99.06Y-93.98
X120.68Y-46.99
X120.68Y-49.53
X120.68Y-52.07
X120.68Y-57.15
X120.68Y-59.69
X120.68Y-62.23
X120.68Y-64.77
X120.68Y-67.31
X120.68Y-69.85
X120.68Y-72.39
X120.68Y-74.93
X120.68Y-77.47
X120.68Y-80.01
X120.68Y-82.55
X120.68Y-85.09
X120.68Y-87.63
X120.68Y-90.17
X120.68Y-92.71
X120.68Y-95.25
X120.69Y-54.61
X138.46Y-46.99
X138.46Y-49.53
X138.46Y-52.07
X138.46Y-54.61
X138.46Y-57.15
X138.46Y-59.69
X138.46Y-62.23
X138.46Y-64.77
X138.46Y-67.31
X138.46Y-69.85
X138.46Y-72.39
X138.46Y-74.93
X138.46Y-77.47
X138.46Y-80.01
X138.46Y-82.55
X138.46Y-85.09
X138.46Y-87.63
X138.46Y-90.17
X138.46Y-92.71
X138.46Y-95.25
X156.22Y-76.2
X160.02Y-99.06
X160.02Y-101.6
X160.02Y-104.14
X160.02Y-106.68
X162.56Y-50.8
X162.56Y-53.34
X162.56Y-55.88
X163.82Y-76.2
T0
M30
