%TF.GenerationSoftware,KiCad,Pcbnew,(6.0.9)*%
%TF.CreationDate,2022-11-16T12:37:32-05:00*%
%TF.ProjectId,Project.1,50726f6a-6563-4742-9e31-2e6b69636164,rev?*%
%TF.SameCoordinates,Original*%
%TF.FileFunction,Copper,L1,Top*%
%TF.FilePolarity,Positive*%
%FSLAX46Y46*%
G04 Gerber Fmt 4.6, Leading zero omitted, Abs format (unit mm)*
G04 Created by KiCad (PCBNEW (6.0.9)) date 2022-11-16 12:37:32*
%MOMM*%
%LPD*%
G01*
G04 APERTURE LIST*
%TA.AperFunction,ComponentPad*%
%ADD10C,1.600000*%
%TD*%
%TA.AperFunction,ComponentPad*%
%ADD11O,1.600000X1.600000*%
%TD*%
%TA.AperFunction,ComponentPad*%
%ADD12R,1.700000X1.700000*%
%TD*%
%TA.AperFunction,ComponentPad*%
%ADD13O,1.700000X1.700000*%
%TD*%
%TA.AperFunction,ComponentPad*%
%ADD14R,2.000000X2.000000*%
%TD*%
%TA.AperFunction,ComponentPad*%
%ADD15C,2.000000*%
%TD*%
%TA.AperFunction,ComponentPad*%
%ADD16R,1.800000X1.800000*%
%TD*%
%TA.AperFunction,ComponentPad*%
%ADD17C,1.800000*%
%TD*%
%TA.AperFunction,ComponentPad*%
%ADD18C,1.524000*%
%TD*%
%TA.AperFunction,ViaPad*%
%ADD19C,0.800000*%
%TD*%
%TA.AperFunction,Conductor*%
%ADD20C,0.250000*%
%TD*%
%TA.AperFunction,Conductor*%
%ADD21C,0.500000*%
%TD*%
G04 APERTURE END LIST*
D10*
%TO.P,R1,1*%
%TO.N,VCC*%
X143510000Y-93980000D03*
D11*
%TO.P,R1,2*%
%TO.N,Net-(R1-Pad2)*%
X156210000Y-93980000D03*
%TD*%
D12*
%TO.P,J1,1,SDA*%
%TO.N,SDA*%
X99060000Y-76200000D03*
D13*
%TO.P,J1,2,SCK*%
%TO.N,SCLK*%
X99060000Y-78740000D03*
%TO.P,J1,3,MOSI*%
%TO.N,MOSI*%
X99060000Y-81280000D03*
%TO.P,J1,4,MISO*%
%TO.N,MISO*%
X99060000Y-83820000D03*
%TO.P,J1,5,IRQ*%
%TO.N,unconnected-(J1-Pad5)*%
X99060000Y-86360000D03*
%TO.P,J1,6,GND*%
%TO.N,GND*%
X99060000Y-88900000D03*
%TO.P,J1,7,RST*%
%TO.N,RST*%
X99060000Y-91440000D03*
%TO.P,J1,8,3.3V*%
%TO.N,3.3*%
X99060000Y-93980000D03*
%TD*%
D12*
%TO.P,J3,1,Pin_1*%
%TO.N,PWM*%
X162560000Y-50800000D03*
D13*
%TO.P,J3,2,Pin_2*%
%TO.N,VCC*%
X162560000Y-53340000D03*
%TO.P,J3,3,Pin_3*%
%TO.N,GND*%
X162560000Y-55880000D03*
%TD*%
D12*
%TO.P,J2,1,GND*%
%TO.N,GND*%
X160020000Y-99060000D03*
D13*
%TO.P,J2,2,VCC*%
%TO.N,VCC*%
X160020000Y-101600000D03*
%TO.P,J2,3,SDA*%
%TO.N,RST*%
X160020000Y-104140000D03*
%TO.P,J2,4,SCL*%
%TO.N,SDA*%
X160020000Y-106680000D03*
%TD*%
D14*
%TO.P,BZ1,1,-*%
%TO.N,Buzz*%
X156220000Y-76200000D03*
D15*
%TO.P,BZ1,2,+*%
%TO.N,GND*%
X163820000Y-76200000D03*
%TD*%
D16*
%TO.P,D2,1,K*%
%TO.N,GND*%
X108600000Y-116840000D03*
D17*
%TO.P,D2,2,A*%
%TO.N,LED2*%
X111140000Y-116840000D03*
%TD*%
D18*
%TO.P,U1,1,GPIO0*%
%TO.N,RST*%
X120680000Y-46990000D03*
%TO.P,U1,2,GPIO1*%
%TO.N,SDA*%
X120680000Y-49530000D03*
%TO.P,U1,3,GND*%
%TO.N,GND*%
X120680000Y-52070000D03*
%TO.P,U1,4,GPIO2*%
%TO.N,SCLK*%
X120690000Y-54610000D03*
%TO.P,U1,5,GPIO3*%
%TO.N,MOSI*%
X120680000Y-57150000D03*
%TO.P,U1,6,GPIO4*%
%TO.N,MISO*%
X120680000Y-59690000D03*
%TO.P,U1,7,GPIO5*%
%TO.N,unconnected-(U1-Pad7)*%
X120680000Y-62230000D03*
%TO.P,U1,8,GND*%
%TO.N,unconnected-(U1-Pad8)*%
X120680000Y-64770000D03*
%TO.P,U1,9,GPIO6*%
%TO.N,unconnected-(U1-Pad9)*%
X120680000Y-67310000D03*
%TO.P,U1,10,GPIO7*%
%TO.N,unconnected-(U1-Pad10)*%
X120680000Y-69850000D03*
%TO.P,U1,11,GPIO8*%
%TO.N,LED1*%
X120680000Y-72390000D03*
%TO.P,U1,12,GPIO9*%
%TO.N,LED2*%
X120680000Y-74930000D03*
%TO.P,U1,13,GND*%
%TO.N,unconnected-(U1-Pad13)*%
X120680000Y-77470000D03*
%TO.P,U1,14,GPIO10*%
%TO.N,LED3*%
X120680000Y-80010000D03*
%TO.P,U1,15,GPIO11*%
%TO.N,unconnected-(U1-Pad15)*%
X120680000Y-82550000D03*
%TO.P,U1,16,GPIO12*%
%TO.N,unconnected-(U1-Pad16)*%
X120680000Y-85090000D03*
%TO.P,U1,17,GPIO13*%
%TO.N,unconnected-(U1-Pad17)*%
X120680000Y-87630000D03*
%TO.P,U1,18,GND*%
%TO.N,GND*%
X120680000Y-90170000D03*
%TO.P,U1,19,GPIO14*%
%TO.N,unconnected-(U1-Pad19)*%
X120680000Y-92710000D03*
%TO.P,U1,20,GPIO15*%
%TO.N,Buzz*%
X120680000Y-95250000D03*
%TO.P,U1,21,GPIO16*%
%TO.N,unconnected-(U1-Pad21)*%
X138460000Y-95250000D03*
%TO.P,U1,22,GPIO17*%
%TO.N,unconnected-(U1-Pad22)*%
X138460000Y-92710000D03*
%TO.P,U1,23,GND*%
%TO.N,unconnected-(U1-Pad23)*%
X138460000Y-90170000D03*
%TO.P,U1,24,GPIO18*%
%TO.N,PWM*%
X138460000Y-87630000D03*
%TO.P,U1,25,GPIO19*%
%TO.N,unconnected-(U1-Pad25)*%
X138460000Y-85090000D03*
%TO.P,U1,26,GPIO20*%
%TO.N,unconnected-(U1-Pad26)*%
X138460000Y-82550000D03*
%TO.P,U1,27,GPIO21*%
%TO.N,unconnected-(U1-Pad27)*%
X138460000Y-80010000D03*
%TO.P,U1,28,GND*%
%TO.N,GND*%
X138460000Y-77470000D03*
%TO.P,U1,29,GPIO22*%
%TO.N,unconnected-(U1-Pad29)*%
X138460000Y-74930000D03*
%TO.P,U1,30,RUN*%
%TO.N,unconnected-(U1-Pad30)*%
X138460000Y-72390000D03*
%TO.P,U1,31,GPIO26_ADC0*%
%TO.N,unconnected-(U1-Pad31)*%
X138460000Y-69850000D03*
%TO.P,U1,32,GPIO27_ADC1*%
%TO.N,unconnected-(U1-Pad32)*%
X138460000Y-67310000D03*
%TO.P,U1,33,AGND*%
%TO.N,unconnected-(U1-Pad33)*%
X138460000Y-64770000D03*
%TO.P,U1,34,GPIO28_ADC2*%
%TO.N,unconnected-(U1-Pad34)*%
X138460000Y-62230000D03*
%TO.P,U1,35,ADC_VREF*%
%TO.N,unconnected-(U1-Pad35)*%
X138460000Y-59690000D03*
%TO.P,U1,36,3V3*%
%TO.N,3.3*%
X138460000Y-57150000D03*
%TO.P,U1,37,3V3_EN*%
%TO.N,unconnected-(U1-Pad37)*%
X138460000Y-54610000D03*
%TO.P,U1,38,GND*%
%TO.N,GND*%
X138460000Y-52070000D03*
%TO.P,U1,39,VSYS*%
%TO.N,unconnected-(U1-Pad39)*%
X138460000Y-49530000D03*
%TO.P,U1,40,VBUS*%
%TO.N,Net-(R1-Pad2)*%
X138460000Y-46990000D03*
%TD*%
D16*
%TO.P,D1,1,K*%
%TO.N,GND*%
X99060000Y-116840000D03*
D17*
%TO.P,D1,2,A*%
%TO.N,LED1*%
X101600000Y-116840000D03*
%TD*%
D16*
%TO.P,D3,1,K*%
%TO.N,GND*%
X119380000Y-116840000D03*
D17*
%TO.P,D3,2,A*%
%TO.N,LED3*%
X121920000Y-116840000D03*
%TD*%
D19*
%TO.N,Buzz*%
X126250000Y-100500000D03*
X138650000Y-100500000D03*
X146125000Y-83075000D03*
%TO.N,SDA*%
X103261701Y-86360000D03*
%TO.N,MOSI*%
X105500000Y-77750000D03*
%TO.N,MISO*%
X105750000Y-79750000D03*
X116250000Y-71250000D03*
%TO.N,RST*%
X117700000Y-59500000D03*
X104140000Y-81280000D03*
%TO.N,3.3*%
X142200000Y-49900000D03*
%TD*%
D20*
%TO.N,Buzz*%
X141100000Y-88100000D02*
X146125000Y-83075000D01*
X120680000Y-95250000D02*
X120680000Y-98130000D01*
X141000000Y-88200000D02*
X141100000Y-88100000D01*
X141000000Y-98000000D02*
X141000000Y-88200000D01*
X120800000Y-98250000D02*
X123050000Y-100500000D01*
X141000000Y-98150000D02*
X141000000Y-98000000D01*
X123050000Y-100500000D02*
X126250000Y-100500000D01*
X138650000Y-100500000D02*
X141000000Y-98150000D01*
X120680000Y-98130000D02*
X120800000Y-98250000D01*
D21*
%TO.N,GND*%
X134000000Y-80440000D02*
X134000000Y-88020000D01*
X138460000Y-52070000D02*
X140970000Y-52070000D01*
X111540000Y-121700000D02*
X117060000Y-121700000D01*
X162560000Y-55880000D02*
X162560000Y-74940000D01*
X96520000Y-88900000D02*
X99060000Y-88900000D01*
X120680000Y-52070000D02*
X138460000Y-52070000D01*
X108600000Y-116840000D02*
X108600000Y-118760000D01*
X105440000Y-121920000D02*
X101600000Y-121920000D01*
X160020000Y-80000000D02*
X160020000Y-99060000D01*
X140970000Y-52070000D02*
X144780000Y-55880000D01*
X125675000Y-87000000D02*
X128780000Y-87000000D01*
X163820000Y-76200000D02*
X160020000Y-80000000D01*
X99060000Y-119380000D02*
X99060000Y-116840000D01*
X95480000Y-89940000D02*
X96520000Y-88900000D01*
X131900000Y-114480000D02*
X131900000Y-90120000D01*
X136970000Y-77470000D02*
X134000000Y-80440000D01*
X119380000Y-116840000D02*
X119380000Y-119380000D01*
X99060000Y-106680000D02*
X95480000Y-103100000D01*
X119380000Y-119380000D02*
X121920000Y-121920000D01*
X122505000Y-90170000D02*
X125675000Y-87000000D01*
X108600000Y-118760000D02*
X105440000Y-121920000D01*
X99060000Y-116838198D02*
X99060000Y-106680000D01*
X162560000Y-74940000D02*
X163820000Y-76200000D01*
X117060000Y-121700000D02*
X119380000Y-119380000D01*
X95480000Y-103100000D02*
X95480000Y-89940000D01*
X128780000Y-87000000D02*
X129540000Y-87760000D01*
X138460000Y-77470000D02*
X136970000Y-77470000D01*
X158761802Y-78740000D02*
X139731802Y-78740000D01*
X101600000Y-121920000D02*
X99060000Y-119380000D01*
X108600000Y-118760000D02*
X111540000Y-121700000D01*
X124460000Y-121920000D02*
X131900000Y-114480000D01*
X121920000Y-121920000D02*
X124460000Y-121920000D01*
X160020000Y-79998198D02*
X158761802Y-78740000D01*
X131900000Y-90120000D02*
X129540000Y-87760000D01*
X120680000Y-90170000D02*
X122505000Y-90170000D01*
X144780000Y-55880000D02*
X162560000Y-55880000D01*
X134000000Y-88020000D02*
X131900000Y-90120000D01*
X139731802Y-78740000D02*
X138460000Y-77468198D01*
D20*
%TO.N,LED1*%
X108550000Y-109890000D02*
X101600000Y-116840000D01*
X120680000Y-72390000D02*
X119010000Y-72390000D01*
X119010000Y-72390000D02*
X108550000Y-82850000D01*
X108550000Y-82850000D02*
X108550000Y-109890000D01*
%TO.N,SDA*%
X102600000Y-84450000D02*
X106700000Y-80350000D01*
X103261701Y-86360000D02*
X103260000Y-86360000D01*
X105700000Y-76200000D02*
X99060000Y-76200000D01*
X102600000Y-85700000D02*
X102600000Y-84450000D01*
X103260000Y-86360000D02*
X102600000Y-85700000D01*
X106700000Y-77200000D02*
X105700000Y-76200000D01*
X106700000Y-80350000D02*
X106700000Y-77200000D01*
%TO.N,MOSI*%
X104650000Y-78600000D02*
X103050000Y-78600000D01*
X105500000Y-77750000D02*
X104650000Y-78600000D01*
X100370000Y-81280000D02*
X99060000Y-81280000D01*
X103050000Y-78600000D02*
X100370000Y-81280000D01*
%TO.N,MISO*%
X99060000Y-83820000D02*
X99430000Y-83820000D01*
X116250000Y-71250000D02*
X118250000Y-69250000D01*
X99430000Y-83820000D02*
X103500000Y-79750000D01*
X118250000Y-62120000D02*
X120680000Y-59690000D01*
X118250000Y-69250000D02*
X118250000Y-62120000D01*
X103500000Y-79750000D02*
X105750000Y-79750000D01*
%TO.N,RST*%
X117700000Y-59500000D02*
X117700000Y-49970000D01*
X101600000Y-83800000D02*
X101600000Y-88900000D01*
X101600000Y-88900000D02*
X99060000Y-91440000D01*
X117700000Y-49970000D02*
X120680000Y-46990000D01*
X104120000Y-81280000D02*
X101600000Y-83800000D01*
X104140000Y-81280000D02*
X104120000Y-81280000D01*
D21*
%TO.N,3.3*%
X119300000Y-43800000D02*
X140100000Y-43800000D01*
X114300000Y-48800000D02*
X119300000Y-43800000D01*
X104140000Y-91440000D02*
X104140000Y-85060000D01*
X140100000Y-43800000D02*
X142200000Y-45900000D01*
X142200000Y-45900000D02*
X142200000Y-49900000D01*
X114300000Y-74900000D02*
X114300000Y-48800000D01*
X101601802Y-93978198D02*
X104140000Y-91440000D01*
X99060000Y-93978198D02*
X101601802Y-93978198D01*
X104140000Y-85060000D02*
X114300000Y-74900000D01*
D20*
%TO.N,LED2*%
X111140000Y-83360000D02*
X111140000Y-116840000D01*
X119570000Y-74930000D02*
X111140000Y-83360000D01*
X120680000Y-74930000D02*
X119570000Y-74930000D01*
%TO.N,LED3*%
X118440000Y-80010000D02*
X114800000Y-83650000D01*
X114800000Y-109720000D02*
X121920000Y-116840000D01*
X120680000Y-80010000D02*
X118440000Y-80010000D01*
X114800000Y-83650000D02*
X114800000Y-109720000D01*
%TD*%
M02*
